{"title":"Moon.2009.Bluray.1080p.x264.AC3-5.1-PeN.mkv","uid":6619897,"size":4695353534,"categoryP":"video","categoryS":"hd___movies","magnet":"?xt=urn:btih:fa29bcc0cfd15efa28c045dd4fae6c02b2fa13a4&amp;dn=Moon.2009.Bluray.1080p.x264.AC3-5.1-PeN.mkv&amp;tr=udp%3A%2F%2Ftracker.openbittorrent.com%3A80&amp;tr=udp%3A%2F%2Fopen.demonii.com%3A1337&amp;tr=udp%3A%2F%2Ftracker.coppersurfer.tk%3A6969&amp;tr=udp%3A%2F%2Fexodus.desync.com%3A6969","seeders":1,"leechers":0,"uploader":"penandpike","files":1,"time":1313940591,"description":"Moon.2009.Bluray.1080p.x264.AC3-5.1-PeN.mkv\n   General\n      Complete name : F:\\Movies\\Moon.2009.Bluray.1080p.x264.AC3-5.1-PeN.mkv\n      Format : Matroska\n      File size : 4.37 GiB\n      Duration : 1h 37mn\n      Overall bit rate : 6 443 Kbps\n      Movie name : 00000\n      Encoded date : UTC 2010-10-31 21:26:02\n      Writing application : mkvmerge v2.9.8 ('C'est le bon') built on Aug 13 2009 12:49:06\n      Writing library : libebml v0.7.7 + libmatroska v0.8.1\n   Video #1\n      ID : 1\n      Format : AVC\n      Format/Info : Advanced Video Codec\n      Format profile : &lt;a class=&quot;__cf_email__&quot; href=&quot;/cdn-cgi/l/email-protection&quot; data-cfemail=&quot;baf2d3ddd2faf68e948a&quot;&gt;[email&amp;#160;protected]&lt;/a&gt;&lt;script cf-hash='f9e31' type=&quot;text/javascript&quot;&gt;\n/* &lt;![CDATA[ */!function(){try{var t=&quot;currentScript&quot;in document?document.currentScript:function(){for(var t=document.getElementsByTagName(&quot;script&quot;),e=t.length;e--;)if(t[e].getAttribute(&quot;cf-hash&quot;))return t[e]}();if(t&amp;&amp;t.previousSibling){var e,r,n,i,c=t.previousSibling,a=c.getAttribute(&quot;data-cfemail&quot;);if(a){for(e=&quot;&quot;,r=parseInt(a.substr(0,2),16),n=2;a.length-n;n+=2)i=parseInt(a.substr(n,2),16)^r,e+=String.fromCharCode(i);e=document.createTextNode(e),c.parentNode.replaceChild(e,c)}}}catch(u){}}();/* ]]&gt; */&lt;/script&gt;\n      Format settings, CABAC : Yes\n      Format settings, ReFrames : 5 frames\n      Muxing mode : Container profile=&lt;a class=&quot;__cf_email__&quot; href=&quot;/cdn-cgi/l/email-protection&quot; data-cfemail=&quot;41142f2a2f2e362f01756f71&quot;&gt;[email&amp;#160;protected]&lt;/a&gt;&lt;script cf-hash='f9e31' type=&quot;text/javascript&quot;&gt;\n/* &lt;![CDATA[ */!function(){try{var t=&quot;currentScript&quot;in document?document.currentScript:function(){for(var t=document.getElementsByTagName(&quot;script&quot;),e=t.length;e--;)if(t[e].getAttribute(&quot;cf-hash&quot;))return t[e]}();if(t&amp;&amp;t.previousSibling){var e,r,n,i,c=t.previousSibling,a=c.getAttribute(&quot;data-cfemail&quot;);if(a){for(e=&quot;&quot;,r=parseInt(a.substr(0,2),16),n=2;a.length-n;n+=2)i=parseInt(a.substr(n,2),16)^r,e+=String.fromCharCode(i);e=document.createTextNode(e),c.parentNode.replaceChild(e,c)}}}catch(u){}}();/* ]]&gt; */&lt;/script&gt;\n      Codec ID : V_MPEG4/ISO/AVC\n      Duration : 1h 37mn\n      Bit rate : 5 931 Kbps\n      Nominal bit rate : 6 057 Kbps\n      Width : 1 920 pixels\n      Height : 800 pixels\n      Display aspect ratio : 2.40:1\n      Frame rate : 23.976 fps\n      Resolution : 24 bits\n      Colorimetry : 4:2:0\n      Scan type : Progressive\n      Bits/(Pixel*Frame) : 0.161\n      Stream size : 4.02 GiB (92%)\n      Writing library : x264 core 65\n      Encoding settings : cabac=1 / ref=5 / deblock=1:-2:-2 / analyse=0x3:0x133 / me=umh / subme=9 / psy_rd=1.0:1.0 / mixed_ref=1 / me_range=32 / chroma_me=1 / trellis=1 / 8x8dct=1 / cqm=0 / deadzone=21,11 / chroma_qp_offset=-4 / threads=3 / nr=0 / decimate=1 / mbaff=0 / bframes=6 / b_pyramid=1 / b_adapt=1 / b_bias=0 / direct=3 / wpredb=1 / keyint=240 / keyint_min=24 / scenecut=40(pre) / rc=2pass / bitrate=6057 / ratetol=1.0 / qcomp=0.60 / qpmin=10 / qpmax=51 / qpstep=4 / cplxblur=20.0 / qblur=0.5 / ip_ratio=1.40 / pb_ratio=1.30 / aq=1:1.00\n      Language : English\n      colour_primaries : BT.709-5, BT.1361, IEC 61966-2-4, SMPTE RP177\n      transfer_characteristics : BT.709-5, BT.1361\n      matrix_coefficients : BT.709-5, BT.1361, IEC 61966-2-4 709, SMPTE RP177\n   Audio #2\n      ID : 2\n      Format : AC-3\n      Format/Info : Audio Coding 3\n      Codec ID : A_AC3\n      Duration : 1h 37mn\n      Bit rate mode : Constant\n      Bit rate : 384 Kbps\n      Channel(s) : 6 channels\n      Channel positions : Front: L C R, Surround: L R, LFE\n      Sampling rate : 48.0 KHz\n      Stream size : 267 MiB (6%)\n      Title : English AC3 5.1 @ 1.5 Mbps\n      Language : English\n   Text #3\n      ID : 3\n      Format : UTF-8\n      Codec ID : S_TEXT/UTF8\n      Codec ID/Info : UTF-8 Plain Text\n      Language : English\n   Text #4\n      ID : 4\n      Format : UTF-8\n      Codec ID : S_TEXT/UTF8\n      Codec ID/Info : UTF-8 Plain Text\n      Language : Bulgarian","torrent":{"xt":"urn:btih:fa29bcc0cfd15efa28c045dd4fae6c02b2fa13a4","amp;dn":"Moon.2009.Bluray.1080p.x264.AC3-5.1-PeN.mkv","amp;tr":["udp%3A%2F%2Ftracker.openbittorrent.com%3A80","udp%3A%2F%2Fopen.demonii.com%3A1337","udp%3A%2F%2Ftracker.coppersurfer.tk%3A6969","udp%3A%2F%2Fexodus.desync.com%3A6969"],"infoHash":"fa29bcc0cfd15efa28c045dd4fae6c02b2fa13a4","infoHashBuffer":{"type":"Buffer","data":[250,41,188,192,207,209,94,250,40,192,69,221,79,174,108,2,178,250,19,164]},"announce":[],"urlList":[]}}